<?xml version="1.0" encoding="UTF-8" standalone="no"?>
<!DOCTYPE svg PUBLIC "-//W3C//DTD SVG 1.1//EN"
 "http://www.w3.org/Graphics/SVG/1.1/DTD/svg11.dtd">
<!-- Generated by graphviz version 2.42.4 (0)
 -->
<!-- Title: ERD Pages: 1 -->
<svg width="2240pt" height="1071pt"
 viewBox="0.00 0.00 2240.00 1071.00" xmlns="http://www.w3.org/2000/svg" xmlns:xlink="http://www.w3.org/1999/xlink">
<g id="graph0" class="graph" transform="scale(1 1) rotate(0) translate(18 1053)">
<title>ERD</title>
<polygon fill="white" stroke="transparent" points="-18,18 -18,-1053 2222,-1053 2222,18 -18,18"/>
<g id="clust1" class="cluster">
<title>cluster_dims</title>
<path fill="white" stroke="black" d="M20,-758C20,-758 1437,-758 1437,-758 1443,-758 1449,-764 1449,-770 1449,-770 1449,-988 1449,-988 1449,-994 1443,-1000 1437,-1000 1437,-1000 20,-1000 20,-1000 14,-1000 8,-994 8,-988 8,-988 8,-770 8,-770 8,-764 14,-758 20,-758"/>
<text text-anchor="middle" x="728.5" y="-984.8" font-family="Times,serif" font-size="14.00">CONFORMED DIMENSIONS</text>
</g>
<g id="clust2" class="cluster">
<title>cluster_retail</title>
<path fill="white" stroke="black" d="M1027,-203C1027,-203 1539,-203 1539,-203 1545,-203 1551,-209 1551,-215 1551,-215 1551,-433 1551,-433 1551,-439 1545,-445 1539,-445 1539,-445 1027,-445 1027,-445 1021,-445 1015,-439 1015,-433 1015,-433 1015,-215 1015,-215 1015,-209 1021,-203 1027,-203"/>
<text text-anchor="middle" x="1283" y="-429.8" font-family="Times,serif" font-size="14.00">RETAIL &amp; DIGITAL FACTS</text>
</g>
<g id="clust3" class="cluster">
<title>cluster_commercial</title>
<path fill="white" stroke="black" d="M1020,-453C1020,-453 1546,-453 1546,-453 1552,-453 1558,-459 1558,-465 1558,-465 1558,-738 1558,-738 1558,-744 1552,-750 1546,-750 1546,-750 1020,-750 1020,-750 1014,-750 1008,-744 1008,-738 1008,-738 1008,-465 1008,-465 1008,-459 1014,-453 1020,-453"/>
<text text-anchor="middle" x="1283" y="-734.8" font-family="Times,serif" font-size="14.00">COMMERCIAL &amp; SPECIALTY FACTS</text>
</g>
<g id="clust4" class="cluster">
<title>cluster_supply</title>
<path fill="white" stroke="black" d="M983,-8C983,-8 1583,-8 1583,-8 1589,-8 1595,-14 1595,-20 1595,-20 1595,-183 1595,-183 1595,-189 1589,-195 1583,-195 1583,-195 983,-195 983,-195 977,-195 971,-189 971,-183 971,-183 971,-20 971,-20 971,-14 977,-8 983,-8"/>
<text text-anchor="middle" x="1283" y="-179.8" font-family="Times,serif" font-size="14.00">SUPPLY, STORAGE &amp; LOGISTICS FACTS</text>
</g>
<g id="clust5" class="cluster">
<title>cluster_ops</title>
<path fill="white" stroke="black" d="M1649,-785C1649,-785 2184,-785 2184,-785 2190,-785 2196,-791 2196,-797 2196,-797 2196,-1015 2196,-1015 2196,-1021 2190,-1027 2184,-1027 2184,-1027 1649,-1027 1649,-1027 1643,-1027 1637,-1021 1637,-1015 1637,-1015 1637,-797 1637,-797 1637,-791 1643,-785 1649,-785"/>
<text text-anchor="middle" x="1916.5" y="-1011.8" font-family="Times,serif" font-size="14.00">NEW ENERGY, ASSET &amp; HSSEQ FACTS</text>
</g>
<!-- dim_country -->
<g id="node1" class="node">
<title>dim_country</title>
<polygon fill="none" stroke="black" points="16,-932 16,-968 412,-968 412,-932 16,-932"/>
<text text-anchor="middle" x="59" y="-947.5" font-family="Arial" font-size="10.00">DIM_COUNTRY</text>
<polyline fill="none" stroke="black" points="102,-932 102,-968 "/>
<text text-anchor="middle" x="146" y="-947.5" font-family="Arial" font-size="10.00">PK country_code</text>
<polyline fill="none" stroke="black" points="190,-932 190,-968 "/>
<text text-anchor="middle" x="227" y="-947.5" font-family="Arial" font-size="10.00">country_name</text>
<polyline fill="none" stroke="black" points="264,-932 264,-968 "/>
<text text-anchor="middle" x="300" y="-947.5" font-family="Arial" font-size="10.00">market_group</text>
<polyline fill="none" stroke="black" points="336,-932 336,-968 "/>
<text text-anchor="middle" x="374" y="-947.5" font-family="Arial" font-size="10.00">currency_code</text>
</g>
<!-- dim_site -->
<g id="node2" class="node">
<title>dim_site</title>
<polygon fill="none" stroke="black" points="470,-877 470,-913 921,-913 921,-877 470,-877"/>
<text text-anchor="middle" x="499.5" y="-892.5" font-family="Arial" font-size="10.00">DIM_SITE</text>
<polyline fill="none" stroke="black" points="529,-877 529,-913 "/>
<text text-anchor="middle" x="558" y="-892.5" font-family="Arial" font-size="10.00">PK site_id</text>
<polyline fill="none" stroke="black" points="587,-877 587,-913 "/>
<text text-anchor="middle" x="630.5" y="-892.5" font-family="Arial" font-size="10.00">FK country_code</text>
<polyline fill="none" stroke="black" points="674,-877 674,-913 "/>
<text text-anchor="middle" x="698.5" y="-892.5" font-family="Arial" font-size="10.00">province</text>
<polyline fill="none" stroke="black" points="723,-877 723,-913 "/>
<text text-anchor="middle" x="737" y="-892.5" font-family="Arial" font-size="10.00">city</text>
<polyline fill="none" stroke="black" points="751,-877 751,-913 "/>
<text text-anchor="middle" x="769.5" y="-892.5" font-family="Arial" font-size="10.00">brand</text>
<polyline fill="none" stroke="black" points="788,-877 788,-913 "/>
<text text-anchor="middle" x="810.5" y="-892.5" font-family="Arial" font-size="10.00">lat / lon</text>
<polyline fill="none" stroke="black" points="833,-877 833,-913 "/>
<text text-anchor="middle" x="877" y="-892.5" font-family="Arial" font-size="10.00">ownership_model</text>
</g>
<!-- dim_country&#45;&gt;dim_site -->
<g id="edge1" class="edge">
<title>dim_country&#45;&gt;dim_site</title>
<path fill="none" stroke="black" d="M412.13,-936.75C515.64,-936.75 621,-936.75 621,-936.75 621,-936.75 621,-919.93 621,-919.93"/>
<polygon fill="black" stroke="black" points="623.28,-919.93 621,-913.43 618.73,-919.93 623.28,-919.93"/>
</g>
<!-- dim_terminal -->
<g id="node3" class="node">
<title>dim_terminal</title>
<polygon fill="none" stroke="black" points="487.5,-767 487.5,-803 903.5,-803 903.5,-767 487.5,-767"/>
<text text-anchor="middle" x="531.5" y="-782.5" font-family="Arial" font-size="10.00">DIM_TERMINAL</text>
<polyline fill="none" stroke="black" points="575.5,-767 575.5,-803 "/>
<text text-anchor="middle" x="613.5" y="-782.5" font-family="Arial" font-size="10.00">PK terminal_id</text>
<polyline fill="none" stroke="black" points="651.5,-767 651.5,-803 "/>
<text text-anchor="middle" x="695" y="-782.5" font-family="Arial" font-size="10.00">FK country_code</text>
<polyline fill="none" stroke="black" points="738.5,-767 738.5,-803 "/>
<text text-anchor="middle" x="776.5" y="-782.5" font-family="Arial" font-size="10.00">capacity_litres</text>
<polyline fill="none" stroke="black" points="814.5,-767 814.5,-803 "/>
<text text-anchor="middle" x="859" y="-782.5" font-family="Arial" font-size="10.00">connectivity flags</text>
</g>
<!-- dim_country&#45;&gt;dim_terminal -->
<g id="edge2" class="edge">
<title>dim_country&#45;&gt;dim_terminal</title>
<path fill="none" stroke="black" d="M412.12,-933.25C433.11,-933.25 447,-933.25 447,-933.25 447,-933.25 447,-785 447,-785 447,-785 480.98,-785 480.98,-785"/>
<polygon fill="black" stroke="black" points="480.98,-787.28 487.48,-785 480.98,-782.73 480.98,-787.28"/>
</g>
<!-- dim_customer -->
<g id="node5" class="node">
<title>dim_customer</title>
<polygon fill="none" stroke="black" points="476.5,-822 476.5,-858 914.5,-858 914.5,-822 476.5,-822"/>
<text text-anchor="middle" x="523.5" y="-837.5" font-family="Arial" font-size="10.00">DIM_CUSTOMER</text>
<polyline fill="none" stroke="black" points="570.5,-822 570.5,-858 "/>
<text text-anchor="middle" x="611.5" y="-837.5" font-family="Arial" font-size="10.00">PK customer_id</text>
<polyline fill="none" stroke="black" points="652.5,-822 652.5,-858 "/>
<text text-anchor="middle" x="696" y="-837.5" font-family="Arial" font-size="10.00">FK country_code</text>
<polyline fill="none" stroke="black" points="739.5,-822 739.5,-858 "/>
<text text-anchor="middle" x="759.5" y="-837.5" font-family="Arial" font-size="10.00">sector</text>
<polyline fill="none" stroke="black" points="779.5,-822 779.5,-858 "/>
<text text-anchor="middle" x="811" y="-837.5" font-family="Arial" font-size="10.00">credit_band</text>
<polyline fill="none" stroke="black" points="842.5,-822 842.5,-858 "/>
<text text-anchor="middle" x="878.5" y="-837.5" font-family="Arial" font-size="10.00">contract_type</text>
</g>
<!-- dim_country&#45;&gt;dim_customer -->
<g id="edge3" class="edge">
<title>dim_country&#45;&gt;dim_customer</title>
<path fill="none" stroke="black" d="M412.05,-935C439.75,-935 459,-935 459,-935 459,-935 459,-846.17 459,-846.17 459,-846.17 469.89,-846.17 469.89,-846.17"/>
<polygon fill="black" stroke="black" points="469.89,-848.44 476.39,-846.17 469.89,-843.89 469.89,-848.44"/>
</g>
<!-- dim_asset -->
<g id="node8" class="node">
<title>dim_asset</title>
<polygon fill="none" stroke="black" points="1125,-902 1125,-938 1441,-938 1441,-902 1125,-902"/>
<text text-anchor="middle" x="1160" y="-917.5" font-family="Arial" font-size="10.00">DIM_ASSET</text>
<polyline fill="none" stroke="black" points="1195,-902 1195,-938 "/>
<text text-anchor="middle" x="1228" y="-917.5" font-family="Arial" font-size="10.00">PK asset_id</text>
<polyline fill="none" stroke="black" points="1261,-902 1261,-938 "/>
<text text-anchor="middle" x="1289.5" y="-917.5" font-family="Arial" font-size="10.00">FK site_id</text>
<polyline fill="none" stroke="black" points="1318,-902 1318,-938 "/>
<text text-anchor="middle" x="1348.5" y="-917.5" font-family="Arial" font-size="10.00">asset_type</text>
<polyline fill="none" stroke="black" points="1379,-902 1379,-938 "/>
<text text-anchor="middle" x="1410" y="-917.5" font-family="Arial" font-size="10.00">install_date</text>
</g>
<!-- dim_site&#45;&gt;dim_asset -->
<g id="edge4" class="edge">
<title>dim_site&#45;&gt;dim_asset</title>
<path fill="none" stroke="black" d="M921.38,-907.5C921.38,-907.5 1118.37,-907.5 1118.37,-907.5"/>
<polygon fill="black" stroke="black" points="1118.37,-909.78 1124.87,-907.5 1118.37,-905.23 1118.37,-909.78"/>
</g>
<!-- f_retail -->
<g id="node9" class="node">
<title>f_retail</title>
<polygon fill="none" stroke="black" points="1023,-212 1023,-248 1543,-248 1543,-212 1023,-212"/>
<text text-anchor="middle" x="1096" y="-227.5" font-family="Arial" font-size="10.00">FACT_RETAIL_FUEL_SALES</text>
<polyline fill="none" stroke="black" points="1169,-212 1169,-248 "/>
<text text-anchor="middle" x="1214" y="-227.5" font-family="Arial" font-size="10.00">PK transaction_id</text>
<polyline fill="none" stroke="black" points="1259,-212 1259,-248 "/>
<text text-anchor="middle" x="1287.5" y="-227.5" font-family="Arial" font-size="10.00">FK site_id</text>
<polyline fill="none" stroke="black" points="1316,-212 1316,-248 "/>
<text text-anchor="middle" x="1352.5" y="-227.5" font-family="Arial" font-size="10.00">FK product_id</text>
<polyline fill="none" stroke="black" points="1389,-212 1389,-248 "/>
<text text-anchor="middle" x="1406" y="-227.5" font-family="Arial" font-size="10.00">litres</text>
<polyline fill="none" stroke="black" points="1423,-212 1423,-248 "/>
<text text-anchor="middle" x="1441" y="-227.5" font-family="Arial" font-size="10.00">sales</text>
<polyline fill="none" stroke="black" points="1459,-212 1459,-248 "/>
<text text-anchor="middle" x="1480" y="-227.5" font-family="Arial" font-size="10.00">COGS</text>
<polyline fill="none" stroke="black" points="1501,-212 1501,-248 "/>
<text text-anchor="middle" x="1522" y="-227.5" font-family="Arial" font-size="10.00">margin</text>
</g>
<!-- dim_site&#45;&gt;f_retail -->
<g id="edge5" class="edge">
<title>dim_site&#45;&gt;f_retail</title>
<path fill="none" stroke="black" d="M921.18,-887.5C927.43,-887.5 931,-887.5 931,-887.5 931,-887.5 931,-236.17 931,-236.17 931,-236.17 1016.06,-236.17 1016.06,-236.17"/>
<polygon fill="black" stroke="black" points="1016.06,-238.44 1022.56,-236.17 1016.06,-233.89 1016.06,-238.44"/>
</g>
<!-- f_shop -->
<g id="node10" class="node">
<title>f_shop</title>
<polygon fill="none" stroke="black" points="1059.5,-267 1059.5,-303 1506.5,-303 1506.5,-267 1059.5,-267"/>
<text text-anchor="middle" x="1114" y="-282.5" font-family="Arial" font-size="10.00">FACT_SHOP_SALES</text>
<polyline fill="none" stroke="black" points="1168.5,-267 1168.5,-303 "/>
<text text-anchor="middle" x="1210" y="-282.5" font-family="Arial" font-size="10.00">PK shop_line_id</text>
<polyline fill="none" stroke="black" points="1251.5,-267 1251.5,-303 "/>
<text text-anchor="middle" x="1280" y="-282.5" font-family="Arial" font-size="10.00">FK site_id</text>
<polyline fill="none" stroke="black" points="1308.5,-267 1308.5,-303 "/>
<text text-anchor="middle" x="1345" y="-282.5" font-family="Arial" font-size="10.00">FK product_id</text>
<polyline fill="none" stroke="black" points="1381.5,-267 1381.5,-303 "/>
<text text-anchor="middle" x="1405" y="-282.5" font-family="Arial" font-size="10.00">quantity</text>
<polyline fill="none" stroke="black" points="1428.5,-267 1428.5,-303 "/>
<text text-anchor="middle" x="1446.5" y="-282.5" font-family="Arial" font-size="10.00">sales</text>
<polyline fill="none" stroke="black" points="1464.5,-267 1464.5,-303 "/>
<text text-anchor="middle" x="1485.5" y="-282.5" font-family="Arial" font-size="10.00">margin</text>
</g>
<!-- dim_site&#45;&gt;f_shop -->
<g id="edge7" class="edge">
<title>dim_site&#45;&gt;f_shop</title>
<path fill="none" stroke="black" d="M921.32,-889.5C933.58,-889.5 941,-889.5 941,-889.5 941,-889.5 941,-291.17 941,-291.17 941,-291.17 1052.68,-291.17 1052.68,-291.17"/>
<polygon fill="black" stroke="black" points="1052.68,-293.44 1059.18,-291.17 1052.68,-288.89 1052.68,-293.44"/>
</g>
<!-- f_loyalty -->
<g id="node11" class="node">
<title>f_loyalty</title>
<polygon fill="none" stroke="black" points="1047,-377 1047,-413 1519,-413 1519,-377 1047,-377"/>
<text text-anchor="middle" x="1132.5" y="-392.5" font-family="Arial" font-size="10.00">FACT_LOYALTY_TRANSACTIONS</text>
<polyline fill="none" stroke="black" points="1218,-377 1218,-413 "/>
<text text-anchor="middle" x="1262.5" y="-392.5" font-family="Arial" font-size="10.00">PK loyalty_txn_id</text>
<polyline fill="none" stroke="black" points="1307,-377 1307,-413 "/>
<text text-anchor="middle" x="1335.5" y="-392.5" font-family="Arial" font-size="10.00">FK site_id</text>
<polyline fill="none" stroke="black" points="1364,-377 1364,-413 "/>
<text text-anchor="middle" x="1402.5" y="-392.5" font-family="Arial" font-size="10.00">member_token</text>
<polyline fill="none" stroke="black" points="1441,-377 1441,-413 "/>
<text text-anchor="middle" x="1460.5" y="-392.5" font-family="Arial" font-size="10.00">spend</text>
<polyline fill="none" stroke="black" points="1480,-377 1480,-413 "/>
<text text-anchor="middle" x="1499.5" y="-392.5" font-family="Arial" font-size="10.00">points</text>
</g>
<!-- dim_site&#45;&gt;f_loyalty -->
<g id="edge9" class="edge">
<title>dim_site&#45;&gt;f_loyalty</title>
<path fill="none" stroke="black" d="M921.26,-893.5C944.61,-893.5 960,-893.5 960,-893.5 960,-893.5 960,-395 960,-395 960,-395 1040.48,-395 1040.48,-395"/>
<polygon fill="black" stroke="black" points="1040.48,-397.28 1046.98,-395 1040.48,-392.73 1040.48,-397.28"/>
</g>
<!-- f_digital -->
<g id="node12" class="node">
<title>f_digital</title>
<polygon fill="none" stroke="black" points="1059.5,-322 1059.5,-358 1506.5,-358 1506.5,-322 1059.5,-322"/>
<text text-anchor="middle" x="1123" y="-337.5" font-family="Arial" font-size="10.00">FACT_DIGITAL_EVENTS</text>
<polyline fill="none" stroke="black" points="1186.5,-322 1186.5,-358 "/>
<text text-anchor="middle" x="1219.5" y="-337.5" font-family="Arial" font-size="10.00">PK event_id</text>
<polyline fill="none" stroke="black" points="1252.5,-322 1252.5,-358 "/>
<text text-anchor="middle" x="1281" y="-337.5" font-family="Arial" font-size="10.00">FK site_id</text>
<polyline fill="none" stroke="black" points="1309.5,-322 1309.5,-358 "/>
<text text-anchor="middle" x="1340" y="-337.5" font-family="Arial" font-size="10.00">user_token</text>
<polyline fill="none" stroke="black" points="1370.5,-322 1370.5,-358 "/>
<text text-anchor="middle" x="1403.5" y="-337.5" font-family="Arial" font-size="10.00">event_name</text>
<polyline fill="none" stroke="black" points="1436.5,-322 1436.5,-358 "/>
<text text-anchor="middle" x="1471.5" y="-337.5" font-family="Arial" font-size="10.00">success_flag</text>
</g>
<!-- dim_site&#45;&gt;f_digital -->
<g id="edge10" class="edge">
<title>dim_site&#45;&gt;f_digital</title>
<path fill="none" stroke="black" d="M921.3,-891.5C938.88,-891.5 950,-891.5 950,-891.5 950,-891.5 950,-340 950,-340 950,-340 1053,-340 1053,-340"/>
<polygon fill="black" stroke="black" points="1053,-342.28 1059.5,-340 1053,-337.73 1053,-342.28"/>
</g>
<!-- f_aviation -->
<g id="node14" class="node">
<title>f_aviation</title>
<polygon fill="none" stroke="black" points="1047,-627 1047,-663 1519,-663 1519,-627 1047,-627"/>
<text text-anchor="middle" x="1110.5" y="-642.5" font-family="Arial" font-size="10.00">FACT_AVIATION_SALES</text>
<polyline fill="none" stroke="black" points="1174,-627 1174,-663 "/>
<text text-anchor="middle" x="1223.5" y="-642.5" font-family="Arial" font-size="10.00">PK aviation_sale_id</text>
<polyline fill="none" stroke="black" points="1273,-627 1273,-663 "/>
<text text-anchor="middle" x="1314" y="-642.5" font-family="Arial" font-size="10.00">FK customer_id</text>
<polyline fill="none" stroke="black" points="1355,-627 1355,-663 "/>
<text text-anchor="middle" x="1383.5" y="-642.5" font-family="Arial" font-size="10.00">FK site_id</text>
<polyline fill="none" stroke="black" points="1412,-627 1412,-663 "/>
<text text-anchor="middle" x="1442" y="-642.5" font-family="Arial" font-size="10.00">uplift_litres</text>
<polyline fill="none" stroke="black" points="1472,-627 1472,-663 "/>
<text text-anchor="middle" x="1495.5" y="-642.5" font-family="Arial" font-size="10.00">revenue</text>
</g>
<!-- dim_site&#45;&gt;f_aviation -->
<g id="edge14" class="edge">
<title>dim_site&#45;&gt;f_aviation</title>
<path fill="none" stroke="black" d="M921.24,-878.3C950.2,-878.3 970,-878.3 970,-878.3 970,-878.3 970,-651.17 970,-651.17 970,-651.17 1040.47,-651.17 1040.47,-651.17"/>
<polygon fill="black" stroke="black" points="1040.47,-653.44 1046.97,-651.17 1040.47,-648.89 1040.47,-653.44"/>
</g>
<!-- f_marine -->
<g id="node15" class="node">
<title>f_marine</title>
<polygon fill="none" stroke="black" points="1048.5,-682 1048.5,-718 1517.5,-718 1517.5,-682 1048.5,-682"/>
<text text-anchor="middle" x="1109" y="-697.5" font-family="Arial" font-size="10.00">FACT_MARINE_SALES</text>
<polyline fill="none" stroke="black" points="1169.5,-682 1169.5,-718 "/>
<text text-anchor="middle" x="1216.5" y="-697.5" font-family="Arial" font-size="10.00">PK marine_sale_id</text>
<polyline fill="none" stroke="black" points="1263.5,-682 1263.5,-718 "/>
<text text-anchor="middle" x="1304.5" y="-697.5" font-family="Arial" font-size="10.00">FK customer_id</text>
<polyline fill="none" stroke="black" points="1345.5,-682 1345.5,-718 "/>
<text text-anchor="middle" x="1374" y="-697.5" font-family="Arial" font-size="10.00">FK site_id</text>
<polyline fill="none" stroke="black" points="1402.5,-682 1402.5,-718 "/>
<text text-anchor="middle" x="1436.5" y="-697.5" font-family="Arial" font-size="10.00">bunker_litres</text>
<polyline fill="none" stroke="black" points="1470.5,-682 1470.5,-718 "/>
<text text-anchor="middle" x="1494" y="-697.5" font-family="Arial" font-size="10.00">revenue</text>
</g>
<!-- dim_site&#45;&gt;f_marine -->
<g id="edge16" class="edge">
<title>dim_site&#45;&gt;f_marine</title>
<path fill="none" stroke="black" d="M921.25,-883.7C1008.17,-883.7 1087,-883.7 1087,-883.7 1087,-883.7 1087,-724.79 1087,-724.79"/>
<polygon fill="black" stroke="black" points="1089.28,-724.79 1087,-718.29 1084.73,-724.79 1089.28,-724.79"/>
</g>
<!-- f_lpg -->
<g id="node16" class="node">
<title>f_lpg</title>
<polygon fill="none" stroke="black" points="1033,-572 1033,-608 1533,-608 1533,-572 1033,-572"/>
<text text-anchor="middle" x="1083" y="-587.5" font-family="Arial" font-size="10.00">FACT_LPG_SALES</text>
<polyline fill="none" stroke="black" points="1133,-572 1133,-608 "/>
<text text-anchor="middle" x="1172" y="-587.5" font-family="Arial" font-size="10.00">PK lpg_sale_id</text>
<polyline fill="none" stroke="black" points="1211,-572 1211,-608 "/>
<text text-anchor="middle" x="1239.5" y="-587.5" font-family="Arial" font-size="10.00">FK site_id</text>
<polyline fill="none" stroke="black" points="1268,-572 1268,-608 "/>
<text text-anchor="middle" x="1309" y="-587.5" font-family="Arial" font-size="10.00">FK customer_id</text>
<polyline fill="none" stroke="black" points="1350,-572 1350,-608 "/>
<text text-anchor="middle" x="1386.5" y="-587.5" font-family="Arial" font-size="10.00">FK product_id</text>
<polyline fill="none" stroke="black" points="1423,-572 1423,-608 "/>
<text text-anchor="middle" x="1454.5" y="-587.5" font-family="Arial" font-size="10.00">quantity_kg</text>
<polyline fill="none" stroke="black" points="1486,-572 1486,-608 "/>
<text text-anchor="middle" x="1509.5" y="-587.5" font-family="Arial" font-size="10.00">revenue</text>
</g>
<!-- dim_site&#45;&gt;f_lpg -->
<g id="edge17" class="edge">
<title>dim_site&#45;&gt;f_lpg</title>
<path fill="none" stroke="black" d="M921.46,-881.9C987.83,-881.9 1043,-881.9 1043,-881.9 1043,-881.9 1043,-614.76 1043,-614.76"/>
<polygon fill="black" stroke="black" points="1045.28,-614.76 1043,-608.26 1040.73,-614.76 1045.28,-614.76"/>
</g>
<!-- f_lube -->
<g id="node17" class="node">
<title>f_lube</title>
<polygon fill="none" stroke="black" points="1016,-517 1016,-553 1550,-553 1550,-517 1016,-517"/>
<text text-anchor="middle" x="1085.5" y="-532.5" font-family="Arial" font-size="10.00">FACT_LUBRICANT_SALES</text>
<polyline fill="none" stroke="black" points="1155,-517 1155,-553 "/>
<text text-anchor="middle" x="1206" y="-532.5" font-family="Arial" font-size="10.00">PK lubricant_sale_id</text>
<polyline fill="none" stroke="black" points="1257,-517 1257,-553 "/>
<text text-anchor="middle" x="1285.5" y="-532.5" font-family="Arial" font-size="10.00">FK site_id</text>
<polyline fill="none" stroke="black" points="1314,-517 1314,-553 "/>
<text text-anchor="middle" x="1355" y="-532.5" font-family="Arial" font-size="10.00">FK customer_id</text>
<polyline fill="none" stroke="black" points="1396,-517 1396,-553 "/>
<text text-anchor="middle" x="1432.5" y="-532.5" font-family="Arial" font-size="10.00">FK product_id</text>
<polyline fill="none" stroke="black" points="1469,-517 1469,-553 "/>
<text text-anchor="middle" x="1486" y="-532.5" font-family="Arial" font-size="10.00">litres</text>
<polyline fill="none" stroke="black" points="1503,-517 1503,-553 "/>
<text text-anchor="middle" x="1526.5" y="-532.5" font-family="Arial" font-size="10.00">revenue</text>
</g>
<!-- dim_site&#45;&gt;f_lube -->
<g id="edge20" class="edge">
<title>dim_site&#45;&gt;f_lube</title>
<path fill="none" stroke="black" d="M921.42,-880.1C980.51,-880.1 1028,-880.1 1028,-880.1 1028,-880.1 1028,-559.57 1028,-559.57"/>
<polygon fill="black" stroke="black" points="1030.28,-559.57 1028,-553.07 1025.73,-559.57 1030.28,-559.57"/>
</g>
<!-- f_inv -->
<g id="node18" class="node">
<title>f_inv</title>
<polygon fill="none" stroke="black" points="988.5,-127 988.5,-163 1577.5,-163 1577.5,-127 988.5,-127"/>
<text text-anchor="middle" x="1070" y="-142.5" font-family="Arial" font-size="10.00">FACT_INVENTORY_SNAPSHOT</text>
<polyline fill="none" stroke="black" points="1151.5,-127 1151.5,-163 "/>
<text text-anchor="middle" x="1192.5" y="-142.5" font-family="Arial" font-size="10.00">PK snapshot_id</text>
<polyline fill="none" stroke="black" points="1233.5,-127 1233.5,-163 "/>
<text text-anchor="middle" x="1262" y="-142.5" font-family="Arial" font-size="10.00">FK site_id</text>
<polyline fill="none" stroke="black" points="1290.5,-127 1290.5,-163 "/>
<text text-anchor="middle" x="1328.5" y="-142.5" font-family="Arial" font-size="10.00">FK terminal_id</text>
<polyline fill="none" stroke="black" points="1366.5,-127 1366.5,-163 "/>
<text text-anchor="middle" x="1403" y="-142.5" font-family="Arial" font-size="10.00">FK product_id</text>
<polyline fill="none" stroke="black" points="1439.5,-127 1439.5,-163 "/>
<text text-anchor="middle" x="1458" y="-142.5" font-family="Arial" font-size="10.00">stock</text>
<polyline fill="none" stroke="black" points="1476.5,-127 1476.5,-163 "/>
<text text-anchor="middle" x="1495.5" y="-142.5" font-family="Arial" font-size="10.00">ullage</text>
<polyline fill="none" stroke="black" points="1514.5,-127 1514.5,-163 "/>
<text text-anchor="middle" x="1546" y="-142.5" font-family="Arial" font-size="10.00">days_cover</text>
</g>
<!-- dim_site&#45;&gt;f_inv -->
<g id="edge23" class="edge">
<title>dim_site&#45;&gt;f_inv</title>
<path fill="none" stroke="black" d="M921.06,-897.5C969.77,-897.5 1007,-897.5 1007,-897.5 1007,-897.5 1007,-169.73 1007,-169.73"/>
<polygon fill="black" stroke="black" points="1009.28,-169.73 1007,-163.23 1004.73,-169.73 1009.28,-169.73"/>
</g>
<!-- f_delivery -->
<g id="node19" class="node">
<title>f_delivery</title>
<polygon fill="none" stroke="black" points="979,-72 979,-108 1587,-108 1587,-72 979,-72"/>
<text text-anchor="middle" x="1030.5" y="-87.5" font-family="Arial" font-size="10.00">FACT_DELIVERIES</text>
<polyline fill="none" stroke="black" points="1082,-72 1082,-108 "/>
<text text-anchor="middle" x="1120" y="-87.5" font-family="Arial" font-size="10.00">PK delivery_id</text>
<polyline fill="none" stroke="black" points="1158,-72 1158,-108 "/>
<text text-anchor="middle" x="1196" y="-87.5" font-family="Arial" font-size="10.00">FK terminal_id</text>
<polyline fill="none" stroke="black" points="1234,-72 1234,-108 "/>
<text text-anchor="middle" x="1262.5" y="-87.5" font-family="Arial" font-size="10.00">FK site_id</text>
<polyline fill="none" stroke="black" points="1291,-72 1291,-108 "/>
<text text-anchor="middle" x="1332" y="-87.5" font-family="Arial" font-size="10.00">FK customer_id</text>
<polyline fill="none" stroke="black" points="1373,-72 1373,-108 "/>
<text text-anchor="middle" x="1409" y="-87.5" font-family="Arial" font-size="10.00">FK vehicle_id</text>
<polyline fill="none" stroke="black" points="1445,-72 1445,-108 "/>
<text text-anchor="middle" x="1481.5" y="-87.5" font-family="Arial" font-size="10.00">FK product_id</text>
<polyline fill="none" stroke="black" points="1518,-72 1518,-108 "/>
<text text-anchor="middle" x="1535" y="-87.5" font-family="Arial" font-size="10.00">litres</text>
<polyline fill="none" stroke="black" points="1552,-72 1552,-108 "/>
<text text-anchor="middle" x="1569.5" y="-87.5" font-family="Arial" font-size="10.00">OTIF</text>
</g>
<!-- dim_site&#45;&gt;f_delivery -->
<g id="edge27" class="edge">
<title>dim_site&#45;&gt;f_delivery</title>
<path fill="none" stroke="black" d="M921.22,-895.5C959.42,-895.5 987,-895.5 987,-895.5 987,-895.5 987,-114.84 987,-114.84"/>
<polygon fill="black" stroke="black" points="989.28,-114.84 987,-108.34 984.73,-114.84 989.28,-114.84"/>
</g>
<!-- f_ev -->
<g id="node21" class="node">
<title>f_ev</title>
<polygon fill="none" stroke="black" points="1678.5,-849 1678.5,-885 2154.5,-885 2154.5,-849 1678.5,-849"/>
<text text-anchor="middle" x="1765.5" y="-864.5" font-family="Arial" font-size="10.00">FACT_EV_CHARGING_SESSIONS</text>
<polyline fill="none" stroke="black" points="1852.5,-849 1852.5,-885 "/>
<text text-anchor="middle" x="1911.5" y="-864.5" font-family="Arial" font-size="10.00">PK charging_session_id</text>
<polyline fill="none" stroke="black" points="1970.5,-849 1970.5,-885 "/>
<text text-anchor="middle" x="1999" y="-864.5" font-family="Arial" font-size="10.00">FK site_id</text>
<polyline fill="none" stroke="black" points="2027.5,-849 2027.5,-885 "/>
<text text-anchor="middle" x="2044" y="-864.5" font-family="Arial" font-size="10.00">kWh</text>
<polyline fill="none" stroke="black" points="2060.5,-849 2060.5,-885 "/>
<text text-anchor="middle" x="2084" y="-864.5" font-family="Arial" font-size="10.00">duration</text>
<polyline fill="none" stroke="black" points="2107.5,-849 2107.5,-885 "/>
<text text-anchor="middle" x="2131" y="-864.5" font-family="Arial" font-size="10.00">revenue</text>
</g>
<!-- dim_site&#45;&gt;f_ev -->
<g id="edge34" class="edge">
<title>dim_site&#45;&gt;f_ev</title>
<path fill="none" stroke="black" d="M696,-876.94C696,-873.26 696,-870.5 696,-870.5 696,-870.5 1671.78,-870.5 1671.78,-870.5"/>
<polygon fill="black" stroke="black" points="1671.78,-872.78 1678.28,-870.5 1671.78,-868.23 1671.78,-872.78"/>
</g>
<!-- f_solar -->
<g id="node22" class="node">
<title>f_solar</title>
<polygon fill="none" stroke="black" points="1658,-794 1658,-830 2175,-830 2175,-794 1658,-794"/>
<text text-anchor="middle" x="1732" y="-809.5" font-family="Arial" font-size="10.00">FACT_SOLAR_GENERATION</text>
<polyline fill="none" stroke="black" points="1806,-794 1806,-830 "/>
<text text-anchor="middle" x="1856" y="-809.5" font-family="Arial" font-size="10.00">PK solar_reading_id</text>
<polyline fill="none" stroke="black" points="1906,-794 1906,-830 "/>
<text text-anchor="middle" x="1934.5" y="-809.5" font-family="Arial" font-size="10.00">FK site_id</text>
<polyline fill="none" stroke="black" points="1963,-794 1963,-830 "/>
<text text-anchor="middle" x="2004.5" y="-809.5" font-family="Arial" font-size="10.00">generation_kWh</text>
<polyline fill="none" stroke="black" points="2046,-794 2046,-830 "/>
<text text-anchor="middle" x="2080" y="-809.5" font-family="Arial" font-size="10.00">consumption</text>
<polyline fill="none" stroke="black" points="2114,-794 2114,-830 "/>
<text text-anchor="middle" x="2144.5" y="-809.5" font-family="Arial" font-size="10.00">grid_import</text>
</g>
<!-- dim_site&#45;&gt;f_solar -->
<g id="edge35" class="edge">
<title>dim_site&#45;&gt;f_solar</title>
<path fill="none" stroke="black" d="M921.29,-899.5C1208.87,-899.5 1669,-899.5 1669,-899.5 1669,-899.5 1669,-836.63 1669,-836.63"/>
<polygon fill="black" stroke="black" points="1671.28,-836.63 1669,-830.13 1666.73,-836.63 1671.28,-836.63"/>
</g>
<!-- f_hsseq -->
<g id="node24" class="node">
<title>f_hsseq</title>
<polygon fill="none" stroke="black" points="1682,-959 1682,-995 2151,-995 2151,-959 1682,-959"/>
<text text-anchor="middle" x="1751.5" y="-974.5" font-family="Arial" font-size="10.00">FACT_HSSEQ_INCIDENTS</text>
<polyline fill="none" stroke="black" points="1821,-959 1821,-995 "/>
<text text-anchor="middle" x="1859" y="-974.5" font-family="Arial" font-size="10.00">PK incident_id</text>
<polyline fill="none" stroke="black" points="1897,-959 1897,-995 "/>
<text text-anchor="middle" x="1925.5" y="-974.5" font-family="Arial" font-size="10.00">FK site_id</text>
<polyline fill="none" stroke="black" points="1954,-959 1954,-995 "/>
<text text-anchor="middle" x="1969.5" y="-974.5" font-family="Arial" font-size="10.00">type</text>
<polyline fill="none" stroke="black" points="1985,-959 1985,-995 "/>
<text text-anchor="middle" x="2008.5" y="-974.5" font-family="Arial" font-size="10.00">severity</text>
<polyline fill="none" stroke="black" points="2032,-959 2032,-995 "/>
<text text-anchor="middle" x="2058" y="-974.5" font-family="Arial" font-size="10.00">lost_time</text>
<polyline fill="none" stroke="black" points="2084,-959 2084,-995 "/>
<text text-anchor="middle" x="2117.5" y="-974.5" font-family="Arial" font-size="10.00">spill_volume</text>
</g>
<!-- dim_site&#45;&gt;f_hsseq -->
<g id="edge37" class="edge">
<title>dim_site&#45;&gt;f_hsseq</title>
<path fill="none" stroke="black" d="M771,-913.36C771,-933.65 771,-963.5 771,-963.5 771,-963.5 1675.43,-963.5 1675.43,-963.5"/>
<polygon fill="black" stroke="black" points="1675.43,-965.78 1681.93,-963.5 1675.43,-961.23 1675.43,-965.78"/>
</g>
<!-- dim_terminal&#45;&gt;f_inv -->
<g id="edge24" class="edge">
<title>dim_terminal&#45;&gt;f_inv</title>
<path fill="none" stroke="black" d="M903.53,-784.5C956.12,-784.5 998,-784.5 998,-784.5 998,-784.5 998,-169.61 998,-169.61"/>
<polygon fill="black" stroke="black" points="1000.28,-169.61 998,-163.11 995.73,-169.61 1000.28,-169.61"/>
</g>
<!-- dim_terminal&#45;&gt;f_delivery -->
<g id="edge26" class="edge">
<title>dim_terminal&#45;&gt;f_delivery</title>
<path fill="none" stroke="black" d="M903.74,-775.5C947.65,-775.5 981,-775.5 981,-775.5 981,-775.5 981,-114.84 981,-114.84"/>
<polygon fill="black" stroke="black" points="983.28,-114.84 981,-108.34 978.73,-114.84 983.28,-114.84"/>
</g>
<!-- f_proc -->
<g id="node20" class="node">
<title>f_proc</title>
<polygon fill="none" stroke="black" points="1007,-17 1007,-53 1559,-53 1559,-17 1007,-17"/>
<text text-anchor="middle" x="1096.5" y="-32.5" font-family="Arial" font-size="10.00">FACT_PROCUREMENT_RECEIPTS</text>
<polyline fill="none" stroke="black" points="1186,-17 1186,-53 "/>
<text text-anchor="middle" x="1221.5" y="-32.5" font-family="Arial" font-size="10.00">PK receipt_id</text>
<polyline fill="none" stroke="black" points="1257,-17 1257,-53 "/>
<text text-anchor="middle" x="1294.5" y="-32.5" font-family="Arial" font-size="10.00">FK supplier_id</text>
<polyline fill="none" stroke="black" points="1332,-17 1332,-53 "/>
<text text-anchor="middle" x="1370" y="-32.5" font-family="Arial" font-size="10.00">FK terminal_id</text>
<polyline fill="none" stroke="black" points="1408,-17 1408,-53 "/>
<text text-anchor="middle" x="1444.5" y="-32.5" font-family="Arial" font-size="10.00">FK product_id</text>
<polyline fill="none" stroke="black" points="1481,-17 1481,-53 "/>
<text text-anchor="middle" x="1504.5" y="-32.5" font-family="Arial" font-size="10.00">quantity</text>
<polyline fill="none" stroke="black" points="1528,-17 1528,-53 "/>
<text text-anchor="middle" x="1543.5" y="-32.5" font-family="Arial" font-size="10.00">cost</text>
</g>
<!-- dim_terminal&#45;&gt;f_proc -->
<g id="edge32" class="edge">
<title>dim_terminal&#45;&gt;f_proc</title>
<path fill="none" stroke="black" d="M696,-766.69C696,-652.62 696,-44.25 696,-44.25 696,-44.25 1000.19,-44.25 1000.19,-44.25"/>
<polygon fill="black" stroke="black" points="1000.19,-46.53 1006.69,-44.25 1000.19,-41.98 1000.19,-46.53"/>
</g>
<!-- dim_product -->
<g id="node4" class="node">
<title>dim_product</title>
<polygon fill="none" stroke="black" points="18,-877 18,-913 410,-913 410,-877 18,-877"/>
<text text-anchor="middle" x="61.5" y="-892.5" font-family="Arial" font-size="10.00">DIM_PRODUCT</text>
<polyline fill="none" stroke="black" points="105,-877 105,-913 "/>
<text text-anchor="middle" x="142" y="-892.5" font-family="Arial" font-size="10.00">PK product_id</text>
<polyline fill="none" stroke="black" points="179,-877 179,-913 "/>
<text text-anchor="middle" x="216" y="-892.5" font-family="Arial" font-size="10.00">product_name</text>
<polyline fill="none" stroke="black" points="253,-877 253,-913 "/>
<text text-anchor="middle" x="290" y="-892.5" font-family="Arial" font-size="10.00">product_group</text>
<polyline fill="none" stroke="black" points="327,-877 327,-913 "/>
<text text-anchor="middle" x="353" y="-892.5" font-family="Arial" font-size="10.00">subgroup</text>
<polyline fill="none" stroke="black" points="379,-877 379,-913 "/>
<text text-anchor="middle" x="394.5" y="-892.5" font-family="Arial" font-size="10.00">uom</text>
</g>
<!-- dim_product&#45;&gt;f_retail -->
<g id="edge6" class="edge">
<title>dim_product&#45;&gt;f_retail</title>
<path fill="none" stroke="black" d="M22,-876.7C22,-769.13 22,-223.83 22,-223.83 22,-223.83 1016.37,-223.83 1016.37,-223.83"/>
<polygon fill="black" stroke="black" points="1016.37,-226.11 1022.87,-223.83 1016.37,-221.56 1016.37,-226.11"/>
</g>
<!-- dim_product&#45;&gt;f_shop -->
<g id="edge8" class="edge">
<title>dim_product&#45;&gt;f_shop</title>
<path fill="none" stroke="black" d="M24,-876.89C24,-775.12 24,-278.83 24,-278.83 24,-278.83 1052.87,-278.83 1052.87,-278.83"/>
<polygon fill="black" stroke="black" points="1052.87,-281.11 1059.37,-278.83 1052.87,-276.56 1052.87,-281.11"/>
</g>
<!-- f_comm -->
<g id="node13" class="node">
<title>f_comm</title>
<polygon fill="none" stroke="black" points="1028,-462 1028,-498 1538,-498 1538,-462 1028,-462"/>
<text text-anchor="middle" x="1108" y="-477.5" font-family="Arial" font-size="10.00">FACT_COMMERCIAL_ORDERS</text>
<polyline fill="none" stroke="black" points="1188,-462 1188,-498 "/>
<text text-anchor="middle" x="1220" y="-477.5" font-family="Arial" font-size="10.00">PK order_id</text>
<polyline fill="none" stroke="black" points="1252,-462 1252,-498 "/>
<text text-anchor="middle" x="1293" y="-477.5" font-family="Arial" font-size="10.00">FK customer_id</text>
<polyline fill="none" stroke="black" points="1334,-462 1334,-498 "/>
<text text-anchor="middle" x="1370.5" y="-477.5" font-family="Arial" font-size="10.00">FK product_id</text>
<polyline fill="none" stroke="black" points="1407,-462 1407,-498 "/>
<text text-anchor="middle" x="1429" y="-477.5" font-family="Arial" font-size="10.00">volume</text>
<polyline fill="none" stroke="black" points="1451,-462 1451,-498 "/>
<text text-anchor="middle" x="1474.5" y="-477.5" font-family="Arial" font-size="10.00">revenue</text>
<polyline fill="none" stroke="black" points="1498,-462 1498,-498 "/>
<text text-anchor="middle" x="1518" y="-477.5" font-family="Arial" font-size="10.00">status</text>
</g>
<!-- dim_product&#45;&gt;f_comm -->
<g id="edge12" class="edge">
<title>dim_product&#45;&gt;f_comm</title>
<path fill="none" stroke="black" d="M405,-876.9C405,-796.29 405,-473.83 405,-473.83 405,-473.83 1021.37,-473.83 1021.37,-473.83"/>
<polygon fill="black" stroke="black" points="1021.37,-476.11 1027.87,-473.83 1021.37,-471.56 1021.37,-476.11"/>
</g>
<!-- dim_product&#45;&gt;f_lpg -->
<g id="edge19" class="edge">
<title>dim_product&#45;&gt;f_lpg</title>
<path fill="none" stroke="black" d="M409,-876.83C409,-811.17 409,-590 409,-590 409,-590 1026.34,-590 1026.34,-590"/>
<polygon fill="black" stroke="black" points="1026.34,-592.28 1032.84,-590 1026.34,-587.73 1026.34,-592.28"/>
</g>
<!-- dim_product&#45;&gt;f_lube -->
<g id="edge22" class="edge">
<title>dim_product&#45;&gt;f_lube</title>
<path fill="none" stroke="black" d="M407,-876.65C407,-803.29 407,-535 407,-535 407,-535 1009.21,-535 1009.21,-535"/>
<polygon fill="black" stroke="black" points="1009.21,-537.28 1015.71,-535 1009.21,-532.73 1009.21,-537.28"/>
</g>
<!-- dim_product&#45;&gt;f_inv -->
<g id="edge25" class="edge">
<title>dim_product&#45;&gt;f_inv</title>
<path fill="none" stroke="black" d="M20,-876.83C20,-762.3 20,-145 20,-145 20,-145 981.98,-145 981.98,-145"/>
<polygon fill="black" stroke="black" points="981.98,-147.28 988.48,-145 981.98,-142.73 981.98,-147.28"/>
</g>
<!-- dim_product&#45;&gt;f_delivery -->
<g id="edge30" class="edge">
<title>dim_product&#45;&gt;f_delivery</title>
<path fill="none" stroke="black" d="M386,-876.91C386,-870.34 386,-864.5 386,-864.5 386,-864.5 985,-864.5 985,-864.5 985,-864.5 985,-114.5 985,-114.5"/>
<polygon fill="black" stroke="black" points="987.28,-114.5 985,-108 982.73,-114.5 987.28,-114.5"/>
</g>
<!-- dim_product&#45;&gt;f_proc -->
<g id="edge33" class="edge">
<title>dim_product&#45;&gt;f_proc</title>
<path fill="none" stroke="black" d="M410.22,-895C418.87,-895 424,-895 424,-895 424,-895 424,-35 424,-35 424,-35 1000.27,-35 1000.27,-35"/>
<polygon fill="black" stroke="black" points="1000.27,-37.28 1006.77,-35 1000.27,-32.73 1000.27,-37.28"/>
</g>
<!-- dim_customer&#45;&gt;f_comm -->
<g id="edge11" class="edge">
<title>dim_customer&#45;&gt;f_comm</title>
<path fill="none" stroke="black" d="M907,-821.97C907,-749.86 907,-486.17 907,-486.17 907,-486.17 1021.28,-486.17 1021.28,-486.17"/>
<polygon fill="black" stroke="black" points="1021.28,-488.44 1027.78,-486.17 1021.28,-483.89 1021.28,-488.44"/>
</g>
<!-- dim_customer&#45;&gt;f_aviation -->
<g id="edge13" class="edge">
<title>dim_customer&#45;&gt;f_aviation</title>
<path fill="none" stroke="black" d="M909,-821.79C909,-772.27 909,-638.83 909,-638.83 909,-638.83 1040.44,-638.83 1040.44,-638.83"/>
<polygon fill="black" stroke="black" points="1040.44,-641.11 1046.94,-638.83 1040.44,-636.56 1040.44,-641.11"/>
</g>
<!-- dim_customer&#45;&gt;f_marine -->
<g id="edge15" class="edge">
<title>dim_customer&#45;&gt;f_marine</title>
<path fill="none" stroke="black" d="M912,-821.98C912,-784.17 912,-700 912,-700 912,-700 1041.8,-700 1041.8,-700"/>
<polygon fill="black" stroke="black" points="1041.8,-702.28 1048.3,-700 1041.8,-697.73 1041.8,-702.28"/>
</g>
<!-- dim_customer&#45;&gt;f_lpg -->
<g id="edge18" class="edge">
<title>dim_customer&#45;&gt;f_lpg</title>
<path fill="none" stroke="black" d="M914.83,-828.25C981.75,-828.25 1038,-828.25 1038,-828.25 1038,-828.25 1038,-614.8 1038,-614.8"/>
<polygon fill="black" stroke="black" points="1040.28,-614.8 1038,-608.3 1035.73,-614.8 1040.28,-614.8"/>
</g>
<!-- dim_customer&#45;&gt;f_lube -->
<g id="edge21" class="edge">
<title>dim_customer&#45;&gt;f_lube</title>
<path fill="none" stroke="black" d="M914.64,-826C973.91,-826 1022,-826 1022,-826 1022,-826 1022,-559.7 1022,-559.7"/>
<polygon fill="black" stroke="black" points="1024.28,-559.7 1022,-553.2 1019.73,-559.7 1024.28,-559.7"/>
</g>
<!-- dim_customer&#45;&gt;f_delivery -->
<g id="edge28" class="edge">
<title>dim_customer&#45;&gt;f_delivery</title>
<path fill="none" stroke="black" d="M914.5,-823.75C954.04,-823.75 983,-823.75 983,-823.75 983,-823.75 983,-114.64 983,-114.64"/>
<polygon fill="black" stroke="black" points="985.28,-114.64 983,-108.14 980.73,-114.64 985.28,-114.64"/>
</g>
<!-- dim_supplier -->
<g id="node6" class="node">
<title>dim_supplier</title>
<polygon fill="none" stroke="black" points="25,-767 25,-803 403,-803 403,-767 25,-767"/>
<text text-anchor="middle" x="68.5" y="-782.5" font-family="Arial" font-size="10.00">DIM_SUPPLIER</text>
<polyline fill="none" stroke="black" points="112,-767 112,-803 "/>
<text text-anchor="middle" x="150" y="-782.5" font-family="Arial" font-size="10.00">PK supplier_id</text>
<polyline fill="none" stroke="black" points="188,-767 188,-803 "/>
<text text-anchor="middle" x="231.5" y="-782.5" font-family="Arial" font-size="10.00">FK country_code</text>
<polyline fill="none" stroke="black" points="275,-767 275,-803 "/>
<text text-anchor="middle" x="310" y="-782.5" font-family="Arial" font-size="10.00">supplier_type</text>
<polyline fill="none" stroke="black" points="345,-767 345,-803 "/>
<text text-anchor="middle" x="374" y="-782.5" font-family="Arial" font-size="10.00">risk_rating</text>
</g>
<!-- dim_supplier&#45;&gt;f_proc -->
<g id="edge31" class="edge">
<title>dim_supplier&#45;&gt;f_proc</title>
<path fill="none" stroke="black" d="M214,-766.98C214,-652 214,-25.75 214,-25.75 214,-25.75 1000.16,-25.75 1000.16,-25.75"/>
<polygon fill="black" stroke="black" points="1000.16,-28.03 1006.66,-25.75 1000.16,-23.48 1000.16,-28.03"/>
</g>
<!-- dim_vehicle -->
<g id="node7" class="node">
<title>dim_vehicle</title>
<polygon fill="none" stroke="black" points="59.5,-822 59.5,-858 368.5,-858 368.5,-822 59.5,-822"/>
<text text-anchor="middle" x="99.5" y="-837.5" font-family="Arial" font-size="10.00">DIM_VEHICLE</text>
<polyline fill="none" stroke="black" points="139.5,-822 139.5,-858 "/>
<text text-anchor="middle" x="176" y="-837.5" font-family="Arial" font-size="10.00">PK vehicle_id</text>
<polyline fill="none" stroke="black" points="212.5,-822 212.5,-858 "/>
<text text-anchor="middle" x="246" y="-837.5" font-family="Arial" font-size="10.00">vehicle_type</text>
<polyline fill="none" stroke="black" points="279.5,-822 279.5,-858 "/>
<text text-anchor="middle" x="304" y="-837.5" font-family="Arial" font-size="10.00">capacity</text>
<polyline fill="none" stroke="black" points="328.5,-822 328.5,-858 "/>
<text text-anchor="middle" x="348.5" y="-837.5" font-family="Arial" font-size="10.00">carrier</text>
</g>
<!-- dim_vehicle&#45;&gt;f_delivery -->
<g id="edge29" class="edge">
<title>dim_vehicle&#45;&gt;f_delivery</title>
<path fill="none" stroke="black" d="M368.79,-833.83C406.39,-833.83 436,-833.83 436,-833.83 436,-833.83 436,-90 436,-90 436,-90 972.21,-90 972.21,-90"/>
<polygon fill="black" stroke="black" points="972.21,-92.28 978.71,-90 972.21,-87.73 972.21,-92.28"/>
</g>
<!-- f_maint -->
<g id="node23" class="node">
<title>f_maint</title>
<polygon fill="none" stroke="black" points="1645,-904 1645,-940 2188,-940 2188,-904 1645,-904"/>
<text text-anchor="middle" x="1746.5" y="-919.5" font-family="Arial" font-size="10.00">FACT_MAINTENANCE_WORK_ORDERS</text>
<polyline fill="none" stroke="black" points="1848,-904 1848,-940 "/>
<text text-anchor="middle" x="1893" y="-919.5" font-family="Arial" font-size="10.00">PK work_order_id</text>
<polyline fill="none" stroke="black" points="1938,-904 1938,-940 "/>
<text text-anchor="middle" x="1970.5" y="-919.5" font-family="Arial" font-size="10.00">FK asset_id</text>
<polyline fill="none" stroke="black" points="2003,-904 2003,-940 "/>
<text text-anchor="middle" x="2018.5" y="-919.5" font-family="Arial" font-size="10.00">type</text>
<polyline fill="none" stroke="black" points="2034,-904 2034,-940 "/>
<text text-anchor="middle" x="2068" y="-919.5" font-family="Arial" font-size="10.00">failure_mode</text>
<polyline fill="none" stroke="black" points="2102,-904 2102,-940 "/>
<text text-anchor="middle" x="2129.5" y="-919.5" font-family="Arial" font-size="10.00">downtime</text>
<polyline fill="none" stroke="black" points="2157,-904 2157,-940 "/>
<text text-anchor="middle" x="2172.5" y="-919.5" font-family="Arial" font-size="10.00">cost</text>
</g>
<!-- dim_asset&#45;&gt;f_maint -->
<g id="edge36" class="edge">
<title>dim_asset&#45;&gt;f_maint</title>
<path fill="none" stroke="black" d="M1441.22,-921C1441.22,-921 1638.35,-921 1638.35,-921"/>
<polygon fill="black" stroke="black" points="1638.35,-923.28 1644.85,-921 1638.35,-918.73 1638.35,-923.28"/>
</g>
</g>
</svg>
